<?xml version="1.0" standalone="no"?>
<!DOCTYPE svg PUBLIC "-//W3C//DTD SVG 20010904//EN"
 "http://www.w3.org/TR/2001/REC-SVG-20010904/DTD/svg10.dtd">
<svg version="1.0" xmlns="http://www.w3.org/2000/svg"
 width="512.000000pt" height="512.000000pt" viewBox="0 0 512.000000 512.000000"
 preserveAspectRatio="xMidYMid meet">

<g transform="translate(0.000000,512.000000) scale(0.100000,-0.100000)"
fill="#000000" stroke="none">
<path d="M2455 5110 c-22 -4 -65 -18 -96 -29 -48 -18 -1634 -896 -1800 -997
-69 -42 -149 -125 -182 -190 -60 -119 -57 -49 -57 -1334 0 -1297 -4 -1218 63
-1343 46 -89 125 -154 315 -261 727 -410 1617 -901 1676 -923 62 -23 86 -27
186 -27 100 0 124 4 186 27 58 22 1624 887 1815 1002 69 43 149 126 182 191
60 119 57 49 57 1334 0 1285 3 1215 -57 1334 -31 60 -110 145 -172 185 -138
88 -1763 985 -1824 1007 -79 28 -220 40 -292 24z m-105 -802 c82 -26 168 -110
191 -188 l11 -36 72 37 c93 49 175 69 279 69 107 0 174 -14 256 -52 80 -38
145 -102 179 -176 20 -45 26 -73 26 -137 2 -187 -44 -239 -408 -465 -158 -97
-270 -160 -285 -160 -42 0 -1238 548 -1261 578 -26 32 -26 92 0 124 15 20 491
287 698 392 69 35 158 40 242 14z m-812 -1222 c710 -355 709 -354 699 -430 -7
-48 -41 -85 -88 -92 -31 -5 -108 31 -696 324 -457 229 -667 339 -682 358 -32
41 -28 95 10 133 58 58 43 64 757 -293z m2801 293 c38 -38 42 -92 10 -133 -15
-19 -225 -129 -682 -358 -588 -293 -665 -329 -696 -324 -75 12 -115 102 -71
159 33 41 1320 686 1372 686 28 1 44 -6 67 -30z m-2774 -851 c16 -16 89 -222
238 -673 119 -357 217 -659 218 -670 3 -43 -2 -58 -30 -86 -23 -23 -38 -29
-71 -29 -67 0 -89 31 -145 201 l-48 146 -254 126 -253 127 -35 -70 c-39 -77
-68 -102 -119 -102 -59 0 -106 47 -106 107 0 14 101 226 224 472 176 352 230
452 253 466 37 23 98 16 128 -15z m2376 -75 c119 -59 202 -174 215 -299 8 -75
-11 -119 -63 -140 -71 -30 -135 16 -147 104 -17 127 -139 196 -252 142 -53
-26 -119 -97 -147 -158 -20 -42 -22 -68 -25 -236 -4 -212 3 -253 51 -311 118
-143 348 -70 371 119 12 95 76 143 149 112 51 -21 71 -65 63 -137 -22 -218
-203 -381 -421 -381 -173 1 -313 91 -389 251 l-31 66 -3 234 c-3 228 -3 236
22 315 38 122 116 224 221 292 82 52 129 64 230 61 79 -2 99 -6 156 -34z
m-1322 -339 c52 -37 51 -27 51 -834 0 -619 -2 -756 -14 -784 -39 -95 -168 -87
-196 12 -14 51 -14 1493 0 1544 20 69 102 101 159 62z"/>
<path d="M1973 3982 c-128 -70 -233 -129 -233 -132 0 -3 57 -31 126 -62 l125
-57 102 66 c227 146 235 153 246 185 14 41 -1 90 -34 112 -51 34 -87 22 -332
-112z"/>
<path d="M2783 3960 c-29 -10 -166 -89 -304 -176 -238 -149 -250 -158 -228
-169 13 -7 110 -52 216 -100 l192 -87 213 132 c117 73 226 145 241 160 57 54
53 145 -8 199 -68 60 -218 79 -322 41z"/>
<path d="M1397 2023 c-43 -84 -77 -155 -77 -158 0 -6 301 -157 305 -153 1 2
-32 107 -75 233 l-77 230 -76 -152z"/>
</g>
</svg>
